<svg xmlns="http://www.w3.org/2000/svg" version="1.1" xmlns:xlink="http://www.w3.org/1999/xlink" xmlns:svgjs="http://svgjs.dev/svgjs" width="128" height="128" viewBox="0 0 128 128"><g transform="matrix(0.8046875,0,0,0.8046875,12.362906878202601,6.558313232421874)"><svg viewBox="0 0 86 96" data-background-color="#ffffff" preserveAspectRatio="xMidYMid meet" height="142" width="128" xmlns="http://www.w3.org/2000/svg" xmlns:xlink="http://www.w3.org/1999/xlink"><g id="tight-bounds" transform="matrix(1,0,0,1,0.11446610169491578,0.25950000000000273)"><svg viewBox="0 0 85.77106779661017 95.481" height="95.481" width="85.77106779661017"><g><svg viewBox="0 0 85.77106779661017 95.481" height="95.481" width="85.77106779661017"><g><svg viewBox="0 0 85.77106779661017 95.481" height="95.481" width="85.77106779661017"><g id="textblocktransform"><svg viewBox="0 0 85.77106779661017 95.481" height="95.481" width="85.77106779661017" id="textblock"><g><svg viewBox="0 0 85.77106779661017 95.481" height="95.481" width="85.77106779661017"><g><svg viewBox="0 0 85.77106779661017 95.481" height="95.481" width="85.77106779661017"><g><svg xmlns="http://www.w3.org/2000/svg" xmlns:xlink="http://www.w3.org/1999/xlink" version="1.1" x="0" y="0" viewBox="0 0 53 59" enable-background="new 0 0 53 59" xml:space="preserve" height="95.481" width="85.77106779661017" class="icon-icon-0" data-fill-palette-color="accent" id="icon-0"><g fill="#2670e4" data-fill-palette-color="accent"><path d="M27.5 10C29.43 10 31 8.43 31 6.5S29.43 3 27.5 3 24 4.57 24 6.5 25.57 10 27.5 10M27.5 5C28.33 5 29 5.67 29 6.5S28.33 8 27.5 8 26 7.33 26 6.5 26.67 5 27.5 5" fill="#2670e4" data-fill-palette-color="accent"></path><path d="M6.5 10C8.43 10 10 8.43 10 6.5S8.43 3 6.5 3 3 4.57 3 6.5 4.57 10 6.5 10M6.5 5C7.33 5 8 5.67 8 6.5S7.33 8 6.5 8 5 7.33 5 6.5 5.67 5 6.5 5" fill="#2670e4" data-fill-palette-color="accent"></path><path d="M6.5 48C4.57 48 3 49.57 3 51.5S4.57 55 6.5 55 10 53.43 10 51.5 8.43 48 6.5 48M6.5 53C5.67 53 5 52.33 5 51.5S5.67 50 6.5 50 8 50.67 8 51.5 7.33 53 6.5 53" fill="#2670e4" data-fill-palette-color="accent"></path><path d="M43 17.02V0H0V58H24.04C25.62 58.63 27.48 59 29.5 59 31.99 59 34.24 58.45 36.02 57.52 37.87 58.47 40.14 59 42.5 59 48.39 59 53 55.93 53 52V24C53 20.19 48.64 17.19 43 17.02M51 24C51 26.71 47.11 29 42.5 29S34 26.71 34 24C34 23.83 34.02 23.67 34.04 23.5 34.05 23.45 34.07 23.41 34.08 23.36 34.11 23.24 34.13 23.13 34.17 23.01 34.19 22.96 34.22 22.91 34.24 22.86 34.28 22.75 34.33 22.65 34.38 22.54 34.41 22.48 34.45 22.43 34.49 22.37 34.55 22.28 34.6 22.18 34.67 22.09 34.72 22.02 34.79 21.94 34.85 21.87S34.96 21.73 35.03 21.66C35.13 21.55 35.24 21.45 35.35 21.35L35.45 21.25C35.76 20.98 36.12 20.72 36.52 20.49 36.91 20.26 37.33 20.05 37.77 19.87 37.8 19.86 37.82 19.85 37.85 19.84 38.29 19.67 38.75 19.52 39.24 19.39 39.26 19.39 39.28 19.38 39.29 19.38 39.7 19.28 40.13 19.2 40.57 19.13 40.59 19.13 40.61 19.12 40.62 19.12 41.08 19.06 41.55 19.02 42.03 19H42.5C47.11 19 51 21.29 51 24M50.94 48.58C50.92 48.66 50.9 48.75 50.87 48.83 50.85 48.91 50.83 48.99 50.8 49.06 50.77 49.14 50.73 49.22 50.69 49.3 50.65 49.37 50.62 49.45 50.58 49.52 50.54 49.6 50.48 49.68 50.43 49.75S50.34 49.89 50.28 49.97 50.16 50.12 50.09 50.2C50.03 50.27 49.97 50.34 49.91 50.4 49.84 50.47 49.76 50.54 49.68 50.62 49.61 50.68 49.55 50.75 49.47 50.81 49.39 50.88 49.3 50.95 49.21 51.01 49.13 51.07 49.06 51.13 48.98 51.19 48.89 51.25 48.79 51.32 48.69 51.38 48.6 51.43 48.52 51.49 48.43 51.54 48.33 51.6 48.22 51.65 48.11 51.71 48.02 51.76 47.92 51.81 47.83 51.86 47.72 51.91 47.6 51.96 47.48 52.01 47.38 52.05 47.28 52.1 47.18 52.14 47.06 52.19 46.93 52.23 46.8 52.28 46.7 52.32 46.59 52.36 46.49 52.39 46.36 52.43 46.22 52.47 46.08 52.51L45.75 52.6C45.61 52.64 45.46 52.67 45.31 52.7 45.2 52.72 45.09 52.75 44.98 52.77 44.82 52.8 44.66 52.82 44.5 52.85 44.39 52.87 44.29 52.88 44.18 52.9 44 52.92 43.81 52.94 43.63 52.95L43.35 52.98A15 15 0 0 1 41.34 52.95L41.03 52.92C40.71 52.89 40.39 52.84 40.08 52.78 40.03 52.77 39.99 52.77 39.94 52.76 39.98 52.51 40 52.26 40 52V50.8L40.21 50.83C40.48 50.87 40.75 50.9 41.03 50.93L41.37 50.96C41.74 50.98 42.12 51 42.5 51 42.91 51 43.31 50.98 43.71 50.95 43.84 50.94 43.96 50.92 44.09 50.91L44.88 50.82C45.02 50.8 45.16 50.77 45.3 50.75 45.54 50.71 45.78 50.66 46.01 50.61 46.15 50.58 46.28 50.55 46.41 50.51 46.65 50.45 46.88 50.38 47.11 50.3 47.22 50.26 47.34 50.23 47.45 50.19 47.77 50.08 48.08 49.96 48.38 49.83 48.39 49.82 48.4 49.82 48.42 49.82 48.73 49.68 49.02 49.53 49.31 49.37 49.4 49.32 49.49 49.26 49.57 49.21 49.76 49.1 49.94 48.98 50.12 48.86 50.21 48.79 50.3 48.73 50.39 48.66 50.55 48.54 50.7 48.41 50.85 48.29 50.89 48.25 50.95 48.22 50.99 48.18 50.99 48.24 50.98 48.29 50.98 48.35 50.96 48.42 50.95 48.5 50.94 48.58M37.94 48.58C37.92 48.66 37.9 48.75 37.87 48.83 37.85 48.91 37.83 48.99 37.8 49.06 37.77 49.14 37.73 49.22 37.69 49.3 37.65 49.37 37.62 49.45 37.58 49.52 37.54 49.6 37.48 49.68 37.43 49.75S37.34 49.89 37.28 49.97 37.16 50.12 37.09 50.2C37.03 50.27 36.97 50.34 36.91 50.4 36.84 50.47 36.76 50.54 36.68 50.62 36.61 50.68 36.55 50.75 36.47 50.81 36.39 50.88 36.3 50.95 36.21 51.01 36.13 51.07 36.06 51.13 35.98 51.19 35.89 51.25 35.79 51.32 35.69 51.38 35.6 51.43 35.52 51.49 35.43 51.54 35.33 51.6 35.22 51.65 35.11 51.71 35.02 51.76 34.92 51.81 34.83 51.86 34.72 51.91 34.6 51.96 34.48 52.01 34.38 52.05 34.28 52.1 34.18 52.14 34.06 52.19 33.93 52.23 33.8 52.28 33.7 52.32 33.59 52.36 33.49 52.39 33.36 52.43 33.22 52.47 33.08 52.51L32.75 52.6C32.61 52.64 32.46 52.67 32.31 52.7 32.2 52.72 32.09 52.75 31.98 52.77 31.82 52.8 31.66 52.82 31.5 52.85 31.39 52.87 31.29 52.88 31.18 52.9 31 52.92 30.81 52.94 30.63 52.95L30.35 52.98C30.07 52.99 29.79 53 29.5 53S28.93 52.99 28.65 52.97L28.37 52.94C28.19 52.92 28 52.91 27.82 52.89 27.71 52.88 27.61 52.86 27.5 52.84A7 7 0 0 1 27.02 52.76C26.91 52.74 26.8 52.71 26.69 52.69 26.54 52.66 26.39 52.63 26.25 52.59 26.14 52.56 26.03 52.53 25.93 52.5 25.79 52.46 25.65 52.42 25.52 52.38 25.41 52.35 25.31 52.31 25.21 52.27 25.08 52.22 24.95 52.18 24.83 52.13 24.73 52.09 24.63 52.04 24.53 52 24.41 51.95 24.29 51.9 24.18 51.85 24.08 51.8 23.99 51.75 23.9 51.7 23.79 51.64 23.68 51.59 23.58 51.53 23.49 51.48 23.41 51.42 23.32 51.37 23.22 51.31 23.12 51.25 23.03 51.18 22.95 51.12 22.87 51.06 22.8 51 22.71 50.93 22.62 50.87 22.54 50.8 22.47 50.74 22.4 50.67 22.33 50.61 22.25 50.54 22.18 50.47 22.1 50.39 22.04 50.32 21.98 50.26 21.92 50.19S21.79 50.04 21.73 49.96L21.58 49.75 21.43 49.51C21.39 49.44 21.35 49.36 21.32 49.29 21.28 49.21 21.24 49.13 21.21 49.05S21.16 48.9 21.14 48.82 21.09 48.65 21.07 48.57A1 1 0 0 1 21.04 48.33C21.03 48.28 21.03 48.22 21.03 48.16 21.07 48.2 21.12 48.23 21.17 48.27 21.32 48.4 21.47 48.52 21.63 48.64 21.72 48.71 21.81 48.78 21.9 48.84 22.08 48.96 22.26 49.08 22.45 49.19 22.54 49.24 22.62 49.3 22.71 49.35 22.99 49.51 23.29 49.66 23.6 49.8 23.61 49.8 23.62 49.81 23.63 49.81 23.93 49.94 24.24 50.06 24.56 50.18 24.67 50.22 24.78 50.25 24.89 50.29 25.12 50.36 25.35 50.43 25.59 50.5 25.72 50.53 25.86 50.57 25.99 50.6 26.22 50.65 26.46 50.7 26.7 50.74 26.84 50.76 26.98 50.79 27.12 50.81 27.38 50.85 27.64 50.88 27.91 50.9 28.04 50.91 28.16 50.93 28.29 50.94 28.69 50.97 29.09 50.99 29.5 50.99S30.31 50.97 30.71 50.94C30.84 50.93 30.96 50.91 31.09 50.9L31.88 50.81C32.02 50.79 32.16 50.76 32.3 50.74 32.54 50.7 32.78 50.65 33.01 50.6 33.15 50.57 33.28 50.54 33.41 50.5 33.65 50.44 33.88 50.37 34.11 50.29 34.22 50.25 34.34 50.22 34.45 50.18 34.77 50.07 35.08 49.95 35.38 49.82 35.39 49.81 35.4 49.81 35.42 49.81 35.73 49.67 36.02 49.52 36.31 49.36 36.4 49.31 36.49 49.25 36.57 49.2 36.76 49.09 36.94 48.97 37.12 48.85 37.21 48.78 37.3 48.72 37.39 48.65 37.55 48.53 37.7 48.4 37.85 48.28 37.89 48.24 37.95 48.21 37.99 48.17 37.99 48.23 37.98 48.28 37.98 48.34 37.96 48.42 37.95 48.5 37.94 48.58M7 19.21V12.98A6.5 6.5 0 0 0 12.98 7H21.02A6.5 6.5 0 0 0 27 12.98V19.21C26.99 19.19 26.97 19.18 26.95 19.17 26.78 19 26.6 18.84 26.43 18.68S26.09 18.36 25.92 18.21C25.86 18.16 25.79 18.11 25.72 18.06A13.8 13.8 0 0 0 18.53 15.09C18.5 15.09 18.47 15.08 18.43 15.08 17.96 15.02 17.48 15 17 15S16.04 15.02 15.57 15.07C15.54 15.07 15.51 15.08 15.47 15.08 12.81 15.37 10.33 16.41 8.28 18.05 8.21 18.1 8.14 18.15 8.08 18.2 7.9 18.35 7.74 18.51 7.57 18.67 7.39 18.84 7.21 19 7.05 19.17 7.03 19.18 7.01 19.2 7 19.21M31.12 31.1H31.16C31.69 31.16 32.21 31.26 32.72 31.39 33.16 31.5 33.57 31.63 33.97 31.78 34.17 31.85 34.36 31.93 34.54 32.01 34.64 32.06 34.75 32.1 34.85 32.15 35.13 32.29 35.39 32.43 35.63 32.59 35.69 32.62 35.74 32.66 35.79 32.7 36.33 33.06 36.8 33.46 37.15 33.89 37.16 33.9 37.17 33.91 37.18 33.93 37.3 34.08 37.41 34.23 37.5 34.39 37.51 34.41 37.52 34.42 37.53 34.44 37.62 34.59 37.69 34.73 37.75 34.88 37.76 34.91 37.78 34.94 37.79 34.97 37.84 35.11 37.88 35.25 37.91 35.39L37.94 35.5C37.98 35.65 38 35.82 38 36 38 38.71 34.11 41 29.5 41S21 38.71 21 36C21 35.56 21.11 35.14 21.3 34.74 21.57 34.15 22.04 33.58 22.67 33.08 22.71 33.05 22.75 33.02 22.79 32.98 22.97 32.85 23.15 32.72 23.35 32.59 24.91 31.62 27.11 30.99 29.5 30.99 30.05 31 30.59 31.03 31.12 31.1M34.62 28.66C34.71 28.73 34.8 28.8 34.89 28.86 35.07 28.98 35.25 29.1 35.44 29.21 35.53 29.26 35.61 29.32 35.7 29.37 35.98 29.53 36.28 29.68 36.59 29.82 36.6 29.82 36.61 29.83 36.62 29.83 36.92 29.96 37.23 30.08 37.55 30.2 37.66 30.24 37.77 30.27 37.88 30.31 38.11 30.38 38.34 30.45 38.58 30.52 38.71 30.55 38.85 30.59 38.98 30.62 39.21 30.67 39.45 30.72 39.69 30.76 39.83 30.78 39.97 30.81 40.11 30.83 40.37 30.87 40.63 30.9 40.9 30.92 41.03 30.93 41.15 30.95 41.28 30.96 41.68 30.99 42.08 31.01 42.49 31.01S43.3 30.99 43.7 30.96C43.83 30.95 43.95 30.93 44.08 30.92L44.87 30.83C45.01 30.81 45.15 30.78 45.29 30.76 45.53 30.72 45.77 30.67 46 30.62 46.14 30.59 46.27 30.56 46.4 30.52 46.64 30.46 46.87 30.39 47.1 30.31 47.21 30.27 47.33 30.24 47.44 30.2 47.76 30.09 48.07 29.97 48.37 29.84 48.38 29.83 48.39 29.83 48.41 29.83 48.72 29.69 49.01 29.54 49.3 29.38 49.39 29.33 49.48 29.27 49.56 29.22 49.75 29.11 49.93 28.99 50.11 28.87 50.2 28.8 50.29 28.74 50.38 28.67 50.54 28.55 50.69 28.42 50.84 28.3 50.88 28.26 50.94 28.23 50.98 28.19 50.98 28.25 50.97 28.3 50.97 28.36L50.94 28.6C50.92 28.68 50.9 28.77 50.87 28.85 50.85 28.93 50.83 29.01 50.8 29.08 50.77 29.16 50.73 29.24 50.69 29.32 50.65 29.39 50.62 29.47 50.58 29.54 50.54 29.62 50.48 29.7 50.43 29.77S50.34 29.91 50.28 29.99 50.16 30.14 50.09 30.22C50.03 30.29 49.97 30.36 49.91 30.42 49.84 30.49 49.76 30.56 49.68 30.64 49.61 30.7 49.55 30.77 49.47 30.83 49.39 30.9 49.3 30.97 49.21 31.03 49.13 31.09 49.06 31.15 48.98 31.21 48.89 31.27 48.79 31.34 48.69 31.4 48.6 31.45 48.52 31.51 48.43 31.56 48.33 31.62 48.22 31.67 48.11 31.73 48.02 31.78 47.92 31.83 47.83 31.88 47.72 31.93 47.6 31.98 47.48 32.03 47.38 32.07 47.28 32.12 47.18 32.16 47.06 32.21 46.93 32.25 46.8 32.3 46.7 32.34 46.59 32.38 46.49 32.41 46.36 32.45 46.22 32.49 46.08 32.53L45.75 32.62C45.61 32.66 45.46 32.69 45.31 32.72 45.2 32.74 45.09 32.77 44.98 32.79 44.82 32.82 44.66 32.84 44.5 32.87 44.39 32.89 44.29 32.9 44.18 32.92 44 32.94 43.81 32.96 43.63 32.97L43.35 33C43.07 32.99 42.79 33 42.5 33 42.14 33 41.78 32.98 41.43 32.96 41.32 32.95 41.21 32.93 41.1 32.92 40.86 32.9 40.62 32.87 40.39 32.83 40.26 32.81 40.13 32.78 40 32.76 39.79 32.72 39.58 32.68 39.37 32.63 39.24 32.6 39.11 32.56 38.98 32.52 38.83 32.48 38.68 32.44 38.54 32.39 37.61 31.33 36.27 30.46 34.66 29.87 34.26 29.32 34.04 28.74 34.01 28.16L34.16 28.28C34.3 28.41 34.46 28.54 34.62 28.66M50.11 32.86C50.2 32.79 50.29 32.73 50.38 32.66 50.54 32.54 50.69 32.41 50.84 32.29 50.88 32.25 50.94 32.22 50.98 32.18 50.98 32.24 50.97 32.29 50.97 32.35L50.94 32.59C50.92 32.67 50.9 32.76 50.87 32.84 50.85 32.92 50.83 33 50.8 33.07 50.77 33.15 50.73 33.23 50.69 33.31 50.65 33.38 50.62 33.46 50.58 33.53 50.54 33.61 50.48 33.69 50.43 33.76S50.34 33.9 50.28 33.98 50.16 34.13 50.09 34.21C50.03 34.28 49.97 34.35 49.91 34.41 49.84 34.48 49.76 34.55 49.68 34.63 49.61 34.69 49.55 34.76 49.47 34.82 49.39 34.89 49.3 34.96 49.21 35.02 49.13 35.08 49.06 35.14 48.98 35.2 48.89 35.26 48.79 35.33 48.69 35.39 48.6 35.44 48.52 35.5 48.43 35.55 48.33 35.61 48.22 35.66 48.11 35.72 48.02 35.77 47.92 35.82 47.83 35.87 47.72 35.92 47.6 35.97 47.48 36.02 47.38 36.06 47.28 36.11 47.18 36.15 47.06 36.2 46.93 36.24 46.8 36.29 46.7 36.33 46.59 36.37 46.49 36.4 46.36 36.44 46.22 36.48 46.08 36.52L45.75 36.61C45.61 36.65 45.46 36.68 45.31 36.71 45.2 36.73 45.09 36.76 44.98 36.78 44.82 36.81 44.66 36.83 44.5 36.86 44.39 36.88 44.29 36.89 44.18 36.91 44 36.93 43.81 36.95 43.63 36.96L43.35 36.99C43.07 36.99 42.79 37 42.5 37 42 37 41.5 36.96 41.01 36.91L40.57 36.85C40.38 36.82 40.19 36.78 40 36.75V36C40 35.78 39.98 35.56 39.95 35.34 39.93 35.2 39.9 35.07 39.87 34.94L39.84 34.78C39.86 34.78 39.89 34.79 39.91 34.79 40.19 34.84 40.48 34.87 40.77 34.9 40.91 34.92 41.05 34.94 41.19 34.95 41.63 34.98 42.06 35 42.5 35 42.91 35 43.31 34.98 43.71 34.95 43.84 34.94 43.96 34.92 44.09 34.91L44.88 34.82C45.02 34.8 45.16 34.77 45.3 34.75 45.54 34.71 45.78 34.66 46.01 34.61 46.15 34.58 46.28 34.55 46.41 34.51 46.65 34.45 46.88 34.38 47.11 34.3 47.22 34.26 47.34 34.23 47.45 34.19 47.77 34.08 48.08 33.96 48.38 33.83 48.39 33.82 48.4 33.82 48.42 33.82 48.73 33.68 49.02 33.53 49.31 33.37 49.4 33.32 49.49 33.26 49.57 33.21 49.75 33.1 49.93 32.98 50.11 32.86M50.11 36.86C50.2 36.79 50.29 36.73 50.38 36.66 50.54 36.54 50.69 36.41 50.84 36.29 50.88 36.25 50.94 36.22 50.98 36.18 50.98 36.24 50.97 36.29 50.97 36.35L50.94 36.59C50.92 36.67 50.9 36.76 50.87 36.84 50.85 36.92 50.83 37 50.8 37.07 50.77 37.15 50.73 37.23 50.69 37.31 50.65 37.38 50.62 37.46 50.58 37.53 50.54 37.61 50.48 37.69 50.43 37.76S50.34 37.9 50.28 37.98 50.16 38.13 50.09 38.21C50.03 38.28 49.97 38.35 49.91 38.41 49.84 38.48 49.76 38.55 49.68 38.63 49.61 38.69 49.55 38.76 49.47 38.82 49.39 38.89 49.3 38.96 49.21 39.02 49.13 39.08 49.06 39.14 48.98 39.2 48.89 39.26 48.79 39.33 48.69 39.39 48.6 39.44 48.52 39.5 48.43 39.55 48.33 39.61 48.22 39.66 48.11 39.72 48.02 39.77 47.92 39.82 47.83 39.87 47.72 39.92 47.6 39.97 47.48 40.02 47.38 40.06 47.28 40.11 47.18 40.15 47.06 40.2 46.93 40.24 46.8 40.29 46.7 40.33 46.59 40.37 46.49 40.4 46.36 40.44 46.22 40.48 46.08 40.52L45.75 40.61C45.61 40.65 45.46 40.68 45.31 40.71 45.2 40.73 45.09 40.76 44.98 40.78 44.82 40.81 44.66 40.83 44.5 40.86 44.39 40.88 44.29 40.89 44.18 40.91 44 40.93 43.81 40.95 43.63 40.96L43.35 40.99C43.07 40.99 42.79 41 42.5 41 42 41 41.5 40.96 41.01 40.91L40.57 40.85C40.38 40.82 40.19 40.78 40 40.75V38.8L40.21 38.83C40.48 38.87 40.75 38.9 41.03 38.93L41.37 38.96C41.74 38.98 42.12 39 42.5 39 42.91 39 43.31 38.98 43.71 38.95 43.84 38.94 43.96 38.92 44.09 38.91L44.88 38.82C45.02 38.8 45.16 38.77 45.3 38.75 45.54 38.71 45.78 38.66 46.01 38.61 46.15 38.58 46.28 38.55 46.41 38.51 46.65 38.45 46.88 38.38 47.11 38.3 47.22 38.26 47.34 38.23 47.45 38.19 47.77 38.08 48.08 37.96 48.38 37.83 48.39 37.82 48.4 37.82 48.42 37.82 48.73 37.68 49.02 37.53 49.31 37.37 49.4 37.32 49.49 37.26 49.57 37.21 49.75 37.1 49.93 36.98 50.11 36.86M50.11 40.86C50.2 40.79 50.29 40.73 50.38 40.66 50.54 40.54 50.69 40.41 50.84 40.29 50.88 40.25 50.94 40.22 50.98 40.18 50.98 40.24 50.97 40.29 50.97 40.35L50.94 40.59C50.92 40.67 50.9 40.76 50.87 40.84 50.85 40.92 50.83 41 50.8 41.07 50.77 41.15 50.73 41.23 50.69 41.31 50.65 41.38 50.62 41.46 50.58 41.53 50.54 41.61 50.48 41.69 50.43 41.76S50.34 41.9 50.28 41.98 50.16 42.13 50.09 42.21C50.03 42.28 49.97 42.35 49.91 42.41 49.84 42.48 49.76 42.55 49.68 42.63 49.61 42.69 49.55 42.76 49.47 42.82 49.39 42.89 49.3 42.96 49.21 43.02 49.13 43.08 49.06 43.14 48.98 43.2 48.89 43.26 48.79 43.33 48.69 43.39 48.6 43.44 48.52 43.5 48.43 43.55 48.33 43.61 48.22 43.66 48.11 43.72 48.02 43.77 47.92 43.82 47.83 43.87 47.72 43.92 47.6 43.97 47.48 44.02 47.38 44.06 47.28 44.11 47.18 44.15 47.06 44.2 46.93 44.24 46.8 44.29 46.7 44.33 46.59 44.37 46.49 44.4 46.36 44.44 46.22 44.48 46.08 44.52L45.75 44.61C45.61 44.65 45.46 44.68 45.31 44.71 45.2 44.73 45.09 44.76 44.98 44.78 44.82 44.81 44.66 44.83 44.5 44.86 44.39 44.88 44.29 44.89 44.18 44.91 44 44.93 43.81 44.95 43.63 44.96L43.35 44.99C43.07 44.99 42.79 45 42.5 45 42 45 41.5 44.96 41.01 44.91L40.57 44.85C40.38 44.82 40.19 44.78 40 44.75V42.8L40.21 42.83C40.48 42.87 40.75 42.9 41.03 42.93L41.37 42.96C41.74 42.98 42.12 43 42.5 43 42.91 43 43.31 42.98 43.71 42.95 43.84 42.94 43.96 42.92 44.09 42.91L44.88 42.82C45.02 42.8 45.16 42.77 45.3 42.75 45.54 42.71 45.78 42.66 46.01 42.61 46.15 42.58 46.28 42.55 46.41 42.51 46.65 42.45 46.88 42.38 47.11 42.3 47.22 42.26 47.34 42.23 47.45 42.19 47.77 42.08 48.08 41.96 48.38 41.83 48.39 41.82 48.4 41.82 48.42 41.82 48.73 41.68 49.02 41.53 49.31 41.37 49.4 41.32 49.49 41.26 49.57 41.21 49.75 41.1 49.93 40.98 50.11 40.86M50.11 44.86C50.2 44.79 50.29 44.73 50.38 44.66 50.54 44.54 50.69 44.41 50.84 44.29 50.88 44.25 50.94 44.22 50.98 44.18 50.98 44.24 50.97 44.29 50.97 44.35L50.94 44.59C50.92 44.67 50.9 44.76 50.87 44.84 50.85 44.92 50.83 45 50.8 45.07 50.77 45.15 50.73 45.23 50.69 45.31 50.65 45.38 50.62 45.46 50.58 45.53 50.54 45.61 50.48 45.69 50.43 45.76S50.34 45.9 50.28 45.98 50.16 46.13 50.09 46.21C50.03 46.28 49.97 46.35 49.91 46.41 49.84 46.48 49.76 46.55 49.68 46.63 49.61 46.69 49.55 46.76 49.47 46.82 49.39 46.89 49.3 46.96 49.21 47.02 49.13 47.08 49.06 47.14 48.98 47.2 48.89 47.26 48.79 47.33 48.69 47.39 48.6 47.44 48.52 47.5 48.43 47.55 48.33 47.61 48.22 47.66 48.11 47.72 48.02 47.77 47.92 47.82 47.83 47.87 47.72 47.92 47.6 47.97 47.48 48.02 47.38 48.06 47.28 48.11 47.18 48.15 47.06 48.2 46.93 48.24 46.8 48.29 46.7 48.33 46.59 48.37 46.49 48.4 46.36 48.44 46.22 48.48 46.08 48.52L45.75 48.61C45.61 48.65 45.46 48.68 45.31 48.71 45.2 48.73 45.09 48.76 44.98 48.78 44.82 48.81 44.66 48.83 44.5 48.86 44.39 48.88 44.29 48.89 44.18 48.91 44 48.93 43.81 48.95 43.63 48.96L43.35 48.99C43.07 48.99 42.79 49 42.5 49 42 49 41.5 48.96 41.01 48.91L40.57 48.85C40.38 48.82 40.19 48.78 40 48.75V46.8L40.21 46.83C40.48 46.87 40.75 46.9 41.03 46.93L41.37 46.96C41.74 46.98 42.12 47 42.5 47 42.91 47 43.31 46.98 43.71 46.95 43.84 46.94 43.96 46.92 44.09 46.91L44.88 46.82C45.02 46.8 45.16 46.77 45.3 46.75 45.54 46.71 45.78 46.66 46.01 46.61 46.15 46.58 46.28 46.55 46.41 46.51 46.65 46.45 46.88 46.38 47.11 46.3 47.22 46.26 47.34 46.23 47.45 46.19 47.77 46.08 48.08 45.96 48.38 45.83 48.39 45.82 48.4 45.82 48.42 45.82 48.73 45.68 49.02 45.53 49.31 45.37 49.4 45.32 49.49 45.26 49.57 45.21 49.75 45.1 49.93 44.98 50.11 44.86M37.94 44.58C37.92 44.66 37.9 44.75 37.87 44.83 37.85 44.91 37.83 44.99 37.8 45.06 37.77 45.14 37.73 45.22 37.69 45.3 37.65 45.37 37.62 45.45 37.58 45.52 37.54 45.6 37.48 45.68 37.43 45.75S37.34 45.89 37.28 45.97 37.16 46.12 37.09 46.2C37.03 46.27 36.97 46.34 36.91 46.4 36.84 46.47 36.76 46.54 36.68 46.62 36.61 46.68 36.55 46.75 36.47 46.81 36.39 46.88 36.3 46.95 36.21 47.01 36.13 47.07 36.06 47.13 35.98 47.19 35.89 47.25 35.79 47.32 35.69 47.38 35.6 47.43 35.52 47.49 35.43 47.54 35.33 47.6 35.22 47.65 35.11 47.71 35.02 47.76 34.92 47.81 34.83 47.86 34.72 47.91 34.6 47.96 34.48 48.01 34.38 48.05 34.28 48.1 34.18 48.14 34.06 48.19 33.93 48.23 33.8 48.28 33.7 48.32 33.59 48.36 33.49 48.39 33.36 48.43 33.22 48.47 33.08 48.51L32.75 48.6C32.61 48.64 32.46 48.67 32.31 48.7 32.2 48.72 32.09 48.75 31.98 48.77 31.82 48.8 31.66 48.82 31.5 48.85 31.39 48.87 31.29 48.88 31.18 48.9 31 48.92 30.81 48.94 30.63 48.95L30.35 48.98C30.07 48.99 29.79 49 29.5 49S28.93 48.99 28.65 48.97L28.37 48.94C28.19 48.92 28 48.91 27.82 48.89 27.71 48.88 27.61 48.86 27.5 48.84A7 7 0 0 1 27.02 48.76C26.91 48.74 26.8 48.71 26.69 48.69 26.54 48.66 26.39 48.63 26.25 48.59 26.14 48.56 26.03 48.53 25.93 48.5 25.79 48.46 25.65 48.42 25.52 48.38 25.41 48.35 25.31 48.31 25.21 48.27 25.08 48.22 24.95 48.18 24.83 48.13 24.73 48.09 24.63 48.04 24.53 48 24.41 47.95 24.29 47.9 24.18 47.85 24.08 47.8 23.99 47.75 23.9 47.7 23.79 47.64 23.68 47.59 23.58 47.53 23.49 47.48 23.41 47.42 23.32 47.37 23.22 47.31 23.12 47.25 23.03 47.18 22.95 47.12 22.87 47.06 22.8 47 22.71 46.93 22.62 46.87 22.54 46.8 22.47 46.74 22.4 46.67 22.33 46.61 22.25 46.54 22.18 46.47 22.1 46.39 22.04 46.32 21.98 46.26 21.92 46.19S21.79 46.04 21.73 45.96L21.58 45.75 21.43 45.51C21.39 45.44 21.35 45.36 21.32 45.29 21.28 45.21 21.24 45.13 21.21 45.05S21.16 44.9 21.14 44.82 21.09 44.65 21.07 44.57A1 1 0 0 1 21.04 44.33C21.03 44.28 21.03 44.22 21.03 44.16 21.07 44.2 21.12 44.23 21.17 44.27 21.32 44.4 21.47 44.52 21.63 44.64 21.72 44.71 21.81 44.78 21.9 44.84 22.08 44.96 22.26 45.08 22.45 45.19 22.54 45.24 22.62 45.3 22.71 45.35 22.99 45.51 23.29 45.66 23.6 45.8 23.61 45.8 23.62 45.81 23.63 45.81 23.93 45.94 24.24 46.06 24.56 46.18 24.67 46.22 24.78 46.25 24.89 46.29 25.12 46.36 25.35 46.43 25.59 46.5 25.72 46.53 25.86 46.57 25.99 46.6 26.22 46.65 26.46 46.7 26.7 46.74 26.84 46.76 26.98 46.79 27.12 46.81 27.38 46.85 27.64 46.88 27.91 46.9 28.04 46.91 28.16 46.93 28.29 46.94 28.69 46.97 29.09 46.99 29.5 46.99S30.31 46.97 30.71 46.94C30.84 46.93 30.96 46.91 31.09 46.9L31.88 46.81C32.02 46.79 32.16 46.76 32.3 46.74 32.54 46.7 32.78 46.65 33.01 46.6 33.15 46.57 33.28 46.54 33.41 46.5 33.65 46.44 33.88 46.37 34.11 46.29 34.22 46.25 34.34 46.22 34.45 46.18 34.77 46.07 35.08 45.95 35.38 45.82 35.39 45.81 35.4 45.81 35.42 45.81 35.73 45.67 36.02 45.52 36.31 45.36 36.4 45.31 36.49 45.25 36.57 45.2 36.76 45.09 36.94 44.97 37.12 44.85 37.21 44.78 37.3 44.72 37.39 44.65 37.55 44.53 37.7 44.4 37.85 44.28 37.89 44.24 37.95 44.21 37.99 44.17 37.99 44.23 37.98 44.28 37.98 44.34 37.96 44.42 37.95 44.5 37.94 44.58M18.19 40.93C17.8 40.97 17.4 41 17 41 16.53 41 16.06 40.96 15.6 40.91 15.45 40.89 15.31 40.87 15.16 40.84 14.85 40.79 14.54 40.73 14.24 40.66 14.07 40.62 13.91 40.58 13.75 40.53 13.46 40.45 13.18 40.35 12.89 40.25 12.74 40.19 12.59 40.15 12.44 40.08 12.04 39.92 11.65 39.73 11.27 39.53 11.15 39.47 11.05 39.39 10.93 39.32 10.65 39.16 10.38 38.99 10.12 38.8 9.99 38.71 9.86 38.61 9.73 38.51 9.47 38.31 9.22 38.11 8.98 37.89 8.89 37.81 8.79 37.73 8.7 37.64 8.5 37.44 8.31 37.23 8.12 37.02L11.21 33.62C11.62 33.17 12.17 32.92 12.69 33.02L12.83 33.05C12.98 33.17 13.31 33.47 13.53 33.67 14.08 34.17 14.43 34.49 14.72 34.68 15.33 35.85 16.31 36.49 17.52 36.49 17.99 36.49 18.49 36.38 19.01 36.2V40.81C18.9 40.83 18.79 40.85 18.69 40.87zM5.06 27.9L5.09 27.63C5.13 27.31 5.17 27 5.23 26.69L5.26 26.55C5.33 26.2 5.42 25.85 5.53 25.51 5.55 25.44 5.58 25.37 5.6 25.3 5.69 25.03 5.78 24.77 5.89 24.52 5.93 24.42 5.97 24.33 6.01 24.23 6.13 23.96 6.26 23.69 6.4 23.43 6.47 23.3 6.55 23.16 6.63 23.03 6.71 22.89 6.8 22.74 6.89 22.6L6.9 22.59 9.79 25.76C10.51 26.55 11.48 27.01 12.49 27.01A3.8 3.8 0 0 0 13.55 26.83C13.97 26.69 14.24 26.36 14.54 26.01 15.04 25.43 15.43 25.01 16.03 25.01 17.02 25.01 17.98 25.38 18.72 26.06L19.79 27.16 20.29 25.74C20.49 25.5 21.54 25.06 22.35 24.98 22.74 26.03 23.42 28.55 22.2 30.96 22.13 31 22.06 31.05 21.99 31.09 21.87 31.17 21.75 31.26 21.64 31.35 21.54 31.43 21.43 31.5 21.34 31.58 21.23 31.67 21.13 31.77 21.02 31.86A4 4 0 0 0 20.47 32.42C20.39 32.51 20.31 32.59 20.24 32.68 20.15 32.79 20.08 32.9 20 33.01 19.94 33.1 19.87 33.19 19.81 33.28 19.74 33.4 19.68 33.52 19.61 33.64 19.61 33.65 19.6 33.66 19.6 33.66 18.79 34.19 18.06 34.48 17.53 34.48 17.17 34.48 16.76 34.37 16.41 33.55L16.18 33.01 15.78 32.97C15.57 32.81 15.16 32.43 14.9 32.19 14.2 31.55 13.91 31.28 13.57 31.17 13.4 31.11 13.22 31.07 13.05 31.04 11.85 30.83 10.62 31.31 9.75 32.27L6.9 35.4S6.9 35.39 6.89 35.39C6.81 35.26 6.73 35.13 6.65 34.99 6.56 34.84 6.48 34.69 6.39 34.54A6 6 0 0 1 6 33.78C5.96 33.68 5.92 33.58 5.88 33.49 5.78 33.24 5.68 32.98 5.6 32.71 5.58 32.64 5.55 32.56 5.53 32.49 5.43 32.15 5.33 31.8 5.26 31.45L5.23 31.31C5.17 31 5.12 30.69 5.08 30.37L5.05 30.1C5.02 29.74 5 29.37 5 29S5.02 28.26 5.06 27.9M21.62 40.66C21.71 40.73 21.8 40.8 21.89 40.86 22.07 40.98 22.25 41.1 22.44 41.21 22.53 41.26 22.61 41.32 22.7 41.37 22.98 41.53 23.28 41.68 23.59 41.82 23.6 41.82 23.61 41.83 23.62 41.83 23.92 41.96 24.23 42.08 24.55 42.2 24.66 42.24 24.77 42.27 24.88 42.31 25.11 42.38 25.34 42.45 25.58 42.52 25.71 42.55 25.85 42.59 25.98 42.62 26.21 42.67 26.45 42.72 26.69 42.76 26.83 42.78 26.97 42.81 27.11 42.83 27.37 42.87 27.63 42.9 27.9 42.92 28.03 42.93 28.15 42.95 28.28 42.96 28.68 42.99 29.08 43.01 29.49 43.01S30.3 42.99 30.7 42.96C30.83 42.95 30.95 42.93 31.08 42.92L31.87 42.83C32.01 42.81 32.15 42.78 32.29 42.76 32.53 42.72 32.77 42.67 33 42.62 33.14 42.59 33.27 42.56 33.4 42.52 33.64 42.46 33.87 42.39 34.1 42.31 34.21 42.27 34.33 42.24 34.44 42.2 34.76 42.09 35.07 41.97 35.37 41.84 35.38 41.83 35.39 41.83 35.41 41.83 35.72 41.69 36.01 41.54 36.3 41.38 36.39 41.33 36.48 41.27 36.56 41.22 36.75 41.11 36.93 40.99 37.11 40.87 37.2 40.8 37.29 40.74 37.38 40.67 37.54 40.55 37.69 40.42 37.84 40.3 37.88 40.26 37.94 40.23 37.98 40.19 37.98 40.25 37.97 40.3 37.97 40.36L37.94 40.6C37.92 40.68 37.9 40.77 37.87 40.85 37.85 40.93 37.83 41.01 37.8 41.08 37.77 41.16 37.73 41.24 37.69 41.32 37.65 41.39 37.62 41.47 37.58 41.54 37.54 41.62 37.48 41.7 37.43 41.77S37.34 41.91 37.28 41.99 37.16 42.14 37.09 42.22C37.03 42.29 36.97 42.36 36.91 42.42 36.84 42.49 36.76 42.56 36.68 42.64 36.61 42.7 36.55 42.77 36.47 42.83 36.39 42.9 36.3 42.97 36.21 43.03 36.13 43.09 36.06 43.15 35.98 43.21 35.89 43.27 35.79 43.34 35.69 43.4 35.6 43.45 35.52 43.51 35.43 43.56 35.33 43.62 35.22 43.67 35.11 43.73 35.02 43.78 34.92 43.83 34.83 43.88 34.72 43.93 34.6 43.98 34.48 44.03 34.38 44.07 34.28 44.12 34.18 44.16 34.06 44.21 33.93 44.25 33.8 44.3 33.7 44.34 33.59 44.38 33.49 44.41 33.36 44.45 33.22 44.49 33.08 44.53L32.75 44.62C32.61 44.66 32.46 44.69 32.31 44.72 32.2 44.74 32.09 44.77 31.98 44.79 31.82 44.82 31.66 44.84 31.5 44.87 31.39 44.89 31.29 44.9 31.18 44.92 31 44.94 30.81 44.96 30.63 44.97L30.35 45C30.07 44.99 29.79 45 29.5 45S28.93 44.99 28.65 44.97L28.37 44.94C28.19 44.92 28 44.91 27.82 44.89 27.71 44.88 27.61 44.86 27.5 44.84A7 7 0 0 1 27.02 44.76C26.91 44.74 26.8 44.71 26.69 44.69 26.54 44.66 26.39 44.63 26.25 44.59 26.14 44.56 26.03 44.53 25.93 44.5 25.79 44.46 25.65 44.42 25.52 44.38 25.41 44.35 25.31 44.31 25.21 44.27 25.08 44.22 24.95 44.18 24.83 44.13 24.73 44.09 24.63 44.04 24.53 44 24.41 43.95 24.29 43.9 24.18 43.85 24.08 43.8 23.99 43.75 23.9 43.7 23.79 43.64 23.68 43.59 23.58 43.53 23.49 43.48 23.41 43.42 23.32 43.37 23.22 43.31 23.12 43.25 23.03 43.18 22.95 43.12 22.87 43.06 22.8 43 22.71 42.93 22.62 42.87 22.54 42.8 22.47 42.74 22.4 42.67 22.33 42.61 22.25 42.54 22.18 42.47 22.1 42.39 22.04 42.32 21.98 42.26 21.92 42.19S21.79 42.04 21.73 41.96L21.58 41.75 21.43 41.51C21.39 41.44 21.35 41.36 21.32 41.29 21.28 41.21 21.24 41.13 21.21 41.05S21.16 40.9 21.14 40.82 21.09 40.65 21.07 40.57A1 1 0 0 1 21.04 40.33C21.03 40.28 21.03 40.22 21.03 40.16 21.07 40.2 21.12 40.23 21.17 40.27 21.3 40.41 21.46 40.54 21.62 40.66M28.19 29.06C28.01 29.07 27.82 29.09 27.64 29.11L27.16 29.17 26.63 29.26C26.47 29.29 26.32 29.32 26.17 29.35 26 29.39 25.83 29.43 25.67 29.47 25.52 29.51 25.37 29.55 25.23 29.59L24.75 29.74C24.73 29.75 24.71 29.75 24.7 29.76 25.38 26.49 23.97 23.69 23.9 23.54L23.7 23.16 23.29 23.04C23.08 22.98 22.86 22.95 22.59 22.95 21.88 22.95 20.3 23.26 19.27 23.97 18.3 23.34 17.17 23 16 23 14.43 23 13.49 24.11 12.98 24.7 12.9 24.8 12.83 24.89 12.76 24.95 12.66 24.98 12.54 25 12.41 25 12.01 25 11.58 24.78 11.24 24.4L8.12 20.97C8.31 20.76 8.5 20.54 8.7 20.35 8.79 20.26 8.88 20.18 8.98 20.1 9.22 19.88 9.47 19.67 9.73 19.48A10 10 0 0 1 10.93 18.67C11.04 18.6 11.15 18.53 11.27 18.46 11.65 18.25 12.04 18.07 12.44 17.91 12.59 17.85 12.74 17.8 12.89 17.74 13.17 17.64 13.46 17.54 13.75 17.46 13.91 17.41 14.08 17.37 14.24 17.33 14.54 17.26 14.85 17.2 15.16 17.15 15.31 17.13 15.45 17.1 15.6 17.08 16.06 17.04 16.53 17 17 17S17.94 17.04 18.4 17.09C18.55 17.11 18.69 17.13 18.84 17.16 19.15 17.21 19.46 17.27 19.76 17.34 19.93 17.38 20.09 17.42 20.25 17.47 20.54 17.55 20.82 17.65 21.11 17.75 21.26 17.81 21.41 17.85 21.56 17.92 21.96 18.08 22.35 18.27 22.73 18.47 22.85 18.53 22.95 18.61 23.07 18.68 23.35 18.84 23.62 19.01 23.88 19.2 24.01 19.29 24.14 19.39 24.27 19.49 24.53 19.69 24.78 19.89 25.02 20.11 25.11 20.19 25.21 20.27 25.3 20.36 25.99 21.02 26.6 21.77 27.13 22.6 28.31 24.45 29 26.64 29 29V29.01C28.9 29.01 28.8 29.02 28.69 29.03 28.52 29.03 28.36 29.04 28.19 29.06M7 38.79C7.01 38.8 7.03 38.81 7.04 38.83 7.39 39.18 7.76 39.52 8.14 39.84 8.28 39.95 8.42 40.05 8.56 40.16 8.81 40.35 9.07 40.54 9.34 40.72 9.53 40.84 9.72 40.95 9.91 41.07 10.15 41.21 10.39 41.35 10.64 41.48 10.84 41.58 11.05 41.68 11.25 41.78 11.51 41.9 11.77 42 12.04 42.1 12.25 42.18 12.45 42.26 12.66 42.33 12.96 42.43 13.26 42.5 13.56 42.58 13.75 42.63 13.93 42.69 14.12 42.72 14.6 42.82 15.09 42.9 15.58 42.95 15.74 42.97 15.91 42.96 16.08 42.98 16.39 42.97 16.69 43 17 43 17.05 43 17.1 42.99 17.15 42.99 17.43 42.99 17.71 42.96 17.98 42.94 18.24 42.92 18.5 42.91 18.76 42.87 18.84 42.86 18.92 42.86 19 42.85V51H12.98A6.5 6.5 0 0 0 7 45.02zM41 2V17.08C40.66 17.11 40.33 17.15 40 17.2V2zM38 2V17.66C37.66 17.77 37.32 17.89 37 18.02V2zM35 2V19.06C34.64 19.31 34.31 19.57 34 19.85V2zM2 56V2H32V29.2C31.67 29.15 31.34 29.11 31 29.08V29C31 26.38 30.26 23.93 29 21.83V10.88L27.91 10.98C27.77 10.99 27.64 11 27.5 11A4.507 4.507 0 0 1 23.02 6.09L23.12 5H10.88L10.98 6.09A4.507 4.507 0 0 1 6.5 11C6.36 11 6.23 10.99 6.09 10.98L5 10.88V21.83C4.99 21.85 4.97 21.87 4.96 21.9 4.83 22.12 4.7 22.35 4.58 22.58 4.43 22.88 4.28 23.18 4.15 23.48 4.1 23.59 4.06 23.71 4.02 23.82 3.9 24.11 3.79 24.4 3.7 24.7 3.66 24.82 3.62 24.95 3.59 25.08 3.5 25.37 3.43 25.67 3.36 25.97 3.33 26.1 3.3 26.24 3.28 26.37 3.22 26.68 3.17 26.99 3.14 27.31 3.12 27.44 3.11 27.56 3.09 27.69 3.03 28.11 3 28.55 3 29S3.03 29.89 3.07 30.33C3.08 30.46 3.1 30.58 3.12 30.71 3.16 31.02 3.2 31.34 3.26 31.65 3.29 31.78 3.31 31.92 3.34 32.05 3.41 32.35 3.48 32.65 3.57 32.94 3.61 33.07 3.64 33.19 3.68 33.32 3.78 33.62 3.89 33.91 4 34.2 4.05 34.31 4.09 34.43 4.13 34.54 4.26 34.85 4.41 35.14 4.56 35.44 4.68 35.67 4.81 35.9 4.94 36.12 4.95 36.14 4.97 36.16 4.98 36.19V47.14L6.07 47.04C6.23 47.01 6.36 47 6.5 47A4.507 4.507 0 0 1 10.98 51.91L10.88 53H19.11L19.17 53.25C19.2 53.35 19.22 53.45 19.26 53.55L19.35 53.79C19.66 54.59 20.16 55.34 20.84 56zM24.38 55.95C24.28 55.9 24.18 55.86 24.09 55.81 23.95 55.74 23.82 55.67 23.69 55.6 23.6 55.55 23.52 55.5 23.44 55.45 23.21 55.31 22.99 55.16 22.78 55 22.71 54.95 22.64 54.9 22.57 54.84 22.48 54.76 22.4 54.68 22.31 54.6 22.23 54.52 22.15 54.45 22.08 54.37S21.94 54.22 21.88 54.14A2 2 0 0 1 21.67 53.86C21.62 53.79 21.57 53.72 21.53 53.65 21.45 53.53 21.39 53.4 21.33 53.28 21.31 53.23 21.28 53.19 21.26 53.14A3.6 3.6 0 0 1 21.09 52.61C21.08 52.56 21.08 52.52 21.07 52.47 21.05 52.37 21.04 52.27 21.04 52.16 21.08 52.2 21.13 52.23 21.18 52.27 21.33 52.4 21.48 52.52 21.64 52.64 21.73 52.71 21.82 52.78 21.91 52.84 22.09 52.96 22.27 53.08 22.46 53.19 22.55 53.24 22.63 53.3 22.72 53.35 23 53.51 23.3 53.66 23.61 53.8 23.62 53.8 23.63 53.81 23.64 53.81 23.94 53.94 24.25 54.06 24.57 54.18 24.68 54.22 24.79 54.25 24.9 54.29 25.13 54.36 25.36 54.43 25.6 54.5 25.73 54.53 25.87 54.57 26 54.6 26.23 54.65 26.47 54.7 26.71 54.74 26.85 54.76 26.99 54.79 27.13 54.81 27.39 54.85 27.65 54.88 27.92 54.9 28.05 54.91 28.17 54.93 28.3 54.94 28.7 54.97 29.1 54.99 29.51 54.99S30.32 54.97 30.72 54.94C30.85 54.93 30.97 54.91 31.1 54.9L31.89 54.81C32.03 54.79 32.17 54.76 32.31 54.74 32.55 54.7 32.79 54.65 33.02 54.6 33.16 54.57 33.29 54.54 33.42 54.5 33.66 54.44 33.89 54.37 34.12 54.29 34.23 54.25 34.35 54.22 34.46 54.18 34.78 54.07 35.09 53.95 35.39 53.82 35.4 53.81 35.41 53.81 35.43 53.81 35.74 53.67 36.03 53.52 36.32 53.36 36.41 53.31 36.5 53.25 36.58 53.2 36.77 53.09 36.95 52.97 37.13 52.85 37.22 52.78 37.31 52.72 37.4 52.65 37.56 52.53 37.71 52.4 37.86 52.28 37.9 52.24 37.95 52.21 38 52.17 37.99 52.27 37.99 52.38 37.97 52.48 37.97 52.51 37.96 52.53 37.96 52.56 37.92 52.74 37.86 52.92 37.79 53.11V53.12C37.52 53.79 37.01 54.41 36.31 54.96 36.29 54.98 36.27 54.99 36.25 55.01 36.04 55.17 35.81 55.33 35.57 55.48 35.52 55.51 35.48 55.54 35.43 55.57L35.41 55.58C33.84 56.45 31.75 57 29.5 57 27.59 57 25.81 56.6 24.38 55.95M42.5 57C40.87 57 39.3 56.72 37.94 56.2 38.46 55.73 38.9 55.22 39.23 54.66 39.25 54.66 39.27 54.66 39.28 54.67 39.74 54.77 40.21 54.84 40.69 54.9L41.01 54.93C41.51 54.97 42 55 42.5 55 42.91 55 43.31 54.98 43.71 54.95 43.84 54.94 43.96 54.92 44.09 54.91L44.88 54.82C45.02 54.8 45.16 54.77 45.3 54.75 45.54 54.71 45.78 54.66 46.01 54.61 46.15 54.58 46.28 54.55 46.41 54.51 46.65 54.45 46.88 54.38 47.11 54.3 47.22 54.26 47.34 54.23 47.45 54.19 47.77 54.08 48.08 53.96 48.38 53.83 48.39 53.82 48.4 53.82 48.42 53.82 48.73 53.68 49.02 53.53 49.31 53.37 49.4 53.32 49.49 53.26 49.57 53.21 49.76 53.1 49.94 52.98 50.12 52.86 50.21 52.79 50.3 52.73 50.39 52.66 50.55 52.54 50.7 52.41 50.85 52.29L51 52.17C50.84 54.8 47.01 57 42.5 57" fill="#2670e4" data-fill-palette-color="accent"></path></g></svg></g></svg></g></svg></g></svg></g></svg></g></svg></g><defs></defs></svg><rect width="85.77106779661017" height="95.481" fill="none" stroke="none" visibility="hidden"></rect></g></svg></g></svg>